HIERARCHY
ROOT ui
{
	 OFFSET 0 0 0
	 CHANNELS 3 XPosition YPosition Z Position
	 EndSite
	 {
	 OFFSET 0 -1 0
	 }
}
ROOT li
{
	 OFFSET 0 0 0
	 CHANNELS 3 XPosition YPosition Z Position
	 EndSite
	 {
	 OFFSET 0 -1 0
	 }
}
ROOT ul
{
	 OFFSET 0 0 0
	 CHANNELS 3 XPosition YPosition Z Position
	 EndSite
	 {
	 OFFSET 0 -1 0
	 }
}
ROOT ll
{
	 OFFSET 0 0 0
	 CHANNELS 3 XPosition YPosition Z Position
	 EndSite
	 {
	 OFFSET 0 -1 0
	 }
}
ROOT tt
{
	 OFFSET 0 0 0
	 CHANNELS 3 XPosition YPosition Z Position
	 EndSite
	 {
	 OFFSET 0 -1 0
	 }
}
ROOT tb
{
	 OFFSET 0 0 0
	 CHANNELS 3 XPosition YPosition Z Position
	 EndSite
	 {
	 OFFSET 0 -1 0
	 }
}
ROOT td
{
	 OFFSET 0 0 0
	 CHANNELS 3 XPosition YPosition Z Position
	 EndSite
	 {
	 OFFSET 0 -1 0
	 }
}
ROOT v
{
	 OFFSET 0 0 0
	 CHANNELS 3 XPosition YPosition Z Position
	 EndSite
	 {
	 OFFSET 0 -1 0
	 }
}
ROOT bn
{
	 OFFSET 0 0 0
	 CHANNELS 3 XPosition YPosition Z Position
	 EndSite
	 {
	 OFFSET 0 -1 0
	 }
}
MOTION
Frames: 24
Frame Time: 0.002
0.019241931915283204	-0.0019260820150375367	0		0.4353504638671875	-2.357740966796875	0		-0.9415973510742187	0.2071669921875	0		-0.6174252319335938	-2.590260498046875	0		1.72955810546875	-0.37779257202148436	0		3.338818115234375	-0.05498843002319336	0		4.45121826171875	0.025577407836914062	0		5.94757421875	0.41916073608398435	0		-0.12878437805175783	5.92812451171875	0		
0.002524480104446411	0.0012302060127258301	0		0.41495068359375	-2.343497802734375	0		-1.0254757080078125	0.20131173706054686	0		-0.6618233642578125	-2.576707275390625	0		1.72184716796875	-0.37567120361328127	0		3.291935791015625	-0.06215737533569336	0		4.4493720703125	0.02077384567260742	0		5.934923828125	0.42861962890625	0		-0.01271214485168457	5.94019287109375	0		
0.002757668972015381	0.0011091179847717285	0		0.41327728271484376	-2.346562744140625	0		-0.9553251342773438	0.1960406188964844	0		-0.625471923828125	-2.579427978515625	0		1.7168233642578126	-0.39360977172851563	0		3.29297021484375	-0.07509626770019531	0		4.44549560546875	0.013981062889099121	0		5.9220087890625	0.42105560302734374	0		-0.14517506408691405	5.91912744140625	0		
0.007913249015808105	-0.0040991539955139164	0		0.3866932983398437	-2.343252685546875	0		-1.030093505859375	0.1970179443359375	0		-0.6590263671875	-2.575068115234375	0		1.674053466796875	-0.3949774475097656	0		3.29500634765625	-0.08807127380371094	0		4.4367607421875	0.016239870071411134	0		5.9302177734375	0.42113446044921876	0		-0.17934896850585938	5.914515625	0		
0.0032250471115112304	8.371220231056213E-4	0		0.38907992553710935	-2.341404541015625	0		-1.0048421020507812	0.19843687438964844	0		-0.65458154296875	-2.5703056640625	0		1.68021435546875	-0.4011228942871094	0		3.28627685546875	-0.08590135192871094	0		4.43777734375	0.0023167519569396973	0		5.9265537109375	0.4293638916015625	0		-0.1642710723876953	5.92413232421875	0		
0.01056384563446045	0.007579639911651611	0		0.39349859619140626	-2.336597412109375	0		-1.0046195678710939	0.19824057006835938	0		-0.6481369018554688	-2.56457861328125	0		1.680465087890625	-0.40119271850585936	0		3.295480712890625	-0.088033935546875	0		4.4499921875	0.001192073941230774	0		5.92676513671875	0.42949407958984376	0		-0.16333380126953126	5.92296044921875	0		
0.012666780471801758	-6.060389876365662E-4	0		0.41874270629882815	-2.342120849609375	0		-1.0044014892578126	0.19804232788085938	0		-0.6498340454101562	-2.56673095703125	0		1.6535885009765625	-0.4088632202148437	0		3.2965263671875	-0.10006673431396484	0		4.44125048828125	0.00335942006111145	0		5.93597265625	0.4294467468261719	0		-0.14443357849121094	5.917505859375	0		
-0.022098152160644532	7.671509981155395E-4	0		0.3811706237792969	-2.333687744140625	0		-0.9982703857421875	0.19275082397460938	0		-0.660401123046875	-2.558750732421875	0		1.6756630859375	-0.4193026123046875	0		3.298546142578125	-0.11313946533203124	0		4.433267578125	-0.009518391609191894	0		5.93617236328125	0.4294991760253906	0		-0.14443330383300781	5.9173369140625	0		
0.004097704887390137	1.97626993060112E-4	0		0.41728561401367187	-2.344396240234375	0		-0.9931392822265624	0.1884723358154297	0		-0.6492455444335937	-2.56710986328125	0		1.6528167724609375	-0.42306893920898436	0		3.26367626953125	-0.11767122650146485	0		4.42937548828125	-0.01548857307434082	0		5.93635791015625	0.4295142822265625	0		-0.14540463256835937	5.91817626953125	0		
-0.016798744201660155	-0.004660243034362793	0		0.39463565063476563	-2.3372138671875	0		-0.9879216918945313	0.19118974304199218	0		-0.64696875	-2.565337158203125	0		1.643838623046875	-0.4340650024414062	0		3.26567333984375	-0.12979177856445312	0		4.43133935546875	-0.029577550888061525	0		5.93652392578125	0.4294947204589844	0		-0.1775047607421875	5.91048291015625	0		
0.020502235412597655	0.004586641788482666	0		0.4258695068359375	-2.335864990234375	0		-0.9678062133789063	0.18867465209960937	0		-0.67558544921875	-2.554098876953125	0		1.64400146484375	-0.43421435546875	0		3.29387158203125	-0.12733073425292968	0		4.4404609375	-0.03179922676086426	0		5.9407880859375	0.43738302612304686	0		-0.1282509307861328	5.92554248046875	0		
-0.021443647384643556	3.109399974346161E-5	0		0.3950160827636719	-2.337580078125	0		-0.9767901611328125	0.18159663391113282	0		-0.646578369140625	-2.5657490234375	0		1.6708739013671876	-0.45178564453125	0		3.2708349609375	-0.1381075897216797	0		4.42954296875	-0.03473615264892578	0		5.936783203125	0.4293709411621094	0		-0.1292318572998047	5.92635888671875	0		
0.009572670936584473	-0.005644744873046875	0		0.4200775146484375	-2.34315673828125	0		-0.9766976928710938	0.18137342834472656	0		-0.6464336547851562	-2.565966064453125	0		1.6528436279296874	-0.46068380737304687	0		3.2637822265625	-0.1481424865722656	0		4.44163818359375	-0.035039085388183594	0		5.93175	0.4213560485839844	0		-0.026245254516601563	5.92558544921875	0		
-0.02128287124633789	-3.8773798942565917E-4	0		0.39321878051757814	-2.34095263671875	0		-0.9647894287109375	0.17096104431152342	0		-0.6571990356445313	-2.558025146484375	0		1.64864404296875	-0.4788040771484375	0		3.27462060546875	-0.16346141052246094	0		4.4274013671875	-0.05495616912841797	0		5.9320654296875	0.4382493896484375	0		-0.1444424285888672	5.9161650390625	0		
0.004747735977172852	-0.001004217028617859	0		0.3932947998046875	-2.341167236328125	0		-1.0316298828125	0.17973725891113282	0		-0.7171121826171875	-2.5573486328125	0		1.648686279296875	-0.47899591064453123	0		3.28556494140625	-0.1697899169921875	0		4.4484033203125	-0.05741593170166016	0		5.93695361328125	0.4290604248046875	0		-0.16245333862304687	5.92021337890625	0		
-0.014140177726745605	0.006053699016571045	0		0.3974167785644531	-2.336450439453125	0		-0.951577880859375	0.18227664184570314	0		-0.6401007080078125	-2.56075732421875	0		1.6625609130859376	-0.4884060363769531	0		3.275467041015625	-0.1768067169189453	0		4.444302734375	-0.06450235748291015	0		5.93694970703125	0.4289398193359375	0		-0.17772276306152343	5.90920947265625	0		
0.004728727817535401	-0.0014693870544433593	0		0.42235971069335937	-2.342056884765625	0		-1.0208081665039062	0.16906816101074218	0		-0.6810853881835938	-2.561385009765625	0		1.667244140625	-0.5086839904785156	0		3.296339111328125	-0.18429765319824218	0		4.452189453125	-0.07077452087402344	0		5.9369189453125	0.42881634521484374	0		-0.011437950134277343	5.935455078125	0		
-0.021313426971435546	-0.0013191479444503785	0		0.4183016662597656	-2.346230224609375	0		-0.9448654174804687	0.16765640258789063	0		-0.6461586303710938	-2.567169677734375	0		1.6570440673828124	-0.5197408447265625	0		3.30706982421875	-0.19963864135742188	0		4.45702392578125	-0.07900240325927735	0		5.936865234375	0.4286929626464844	0		-0.1439349365234375	5.91420947265625	0		
0.004622296810150146	-0.001961199998855591	0		0.39132373046875	-2.344063232421875	0		-1.0149827270507812	0.16444371032714844	0		-0.7190662231445313	-2.56033203125	0		1.653933837890625	-0.523908935546875	0		3.289878662109375	-0.20855963134765626	0		4.46485791015625	-0.08627628326416016	0		5.93167431640625	0.42064700317382814	0		-0.14510752868652343	5.91497216796875	0		
0.00455244779586792	-0.0022164299488067626	0		0.39130679321289064	-2.344309814453125	0		-1.005072509765625	0.16301487731933595	0		-0.68109765625	-2.562176025390625	0		1.647755859375	-0.5320355834960937	0		3.28560302734375	-0.22267878723144532	0		4.458669921875	-0.09433944702148438	0		5.9277158203125	0.42858502197265624	0		-0.162263916015625	5.91796923828125	0		
0.020555332183837892	0.002281810998916626	0		0.4062752990722656	-2.34578662109375	0		-1.0390830078125	0.1672413787841797	0		-0.702119873046875	-2.56313671875	0		1.68461865234375	-0.53781298828125	0		3.33559228515625	-0.21961378479003907	0		4.49056787109375	-0.09697502899169921	0		5.93663427734375	0.4283302001953125	0		-0.162490478515625	5.91670458984375	0		
0.0044168481826782225	-0.002741615056991577	0		0.4462049255371094	-2.350641357421875	0		-1.0052162475585937	0.16244010925292968	0		-0.6461865844726562	-2.568260009765625	0		1.67540283203125	-0.5488988037109375	0		3.31238525390625	-0.22944764709472656	0		4.48641552734375	-0.10306548309326172	0		5.93655810546875	0.428215576171875	0		-0.14476739501953126	5.912166015625	0		
0.004360712051391601	-0.003009264945983887	0		0.4260948791503906	-2.35859619140625	0		-0.9934281616210937	0.15196626281738282	0		-0.6851536254882813	-2.566960693359375	0		1.698624267578125	-0.598475341796875	0		3.33695751953125	-0.2549974365234375	0		4.507044921875	-0.12452386474609375	0		5.9272666015625	0.41324563598632813	0		0.0015241140127182006	5.94470166015625	0		
0.004314888954162597	-0.003278243064880371	0		0.4240880432128906	-2.36082275390625	0		-0.9934784545898437	0.15166819763183595	0		-0.6851246948242188	-2.567249755859375	0		1.692476806640625	-0.606604248046875	0		3.3268154296875	-0.26201882934570314	0		4.49909326171875	-0.11854251098632812	0		5.9233134765625	0.42020846557617186	0		-0.14520248413085937	5.91162109375	0		
